<svg xmlns="http://www.w3.org/2000/svg" fill="#1C1C1C" width="22" height="22" viewBox="0 0 20 20" aria-labelledby="icon-svg-title- icon-svg-desc-" role="img" class="sc-rbbb40-0 cvuzKA"><path d="M0 10C0 4.5 4.5 0 10 0C15.5 0 20 4.5 20 10C20 15.5 15.5 20 10 20C4.5 20 0 15.5 0 10ZM10.1875 5C8.8125 5 8.625 5 8.0625 5C7.5 5.0625 7.125 5.125 6.8125 5.25C6.5 5.375 6.1875 5.5625 5.875 5.875C5.5625 6.1875 5.375 6.4375 5.25 6.8125C5.125 7.125 5 7.5 5 8.0625C5 8.625 5 8.75 5 10.1875C5 11.625 5 11.8125 5.0625 12.375C5.0625 12.9375 5.1875 13.3125 5.3125 13.625C5.4375 13.9375 5.625 14.25 5.9375 14.5625C6.1875 14.8125 6.5 15 6.875 15.1875C7.1875 15.3125 7.5625 15.4375 8.125 15.4375C8.6875 15.4375 8.875 15.5 10.25 15.5C11.6875 15.5 11.875 15.5 12.4375 15.4375C13 15.375 13.375 15.3125 13.6875 15.1875C14 15.0625 14.3125 14.875 14.625 14.5625C14.9375 14.25 15.125 14 15.25 13.625C15.375 13.3125 15.5 12.875 15.5 12.375C15.5625 11.8125 15.5625 11.625 15.5625 10.1875C15.5625 8.75 15.5625 8.625 15.5 8.0625C15.5 7.5 15.375 7.125 15.25 6.8125C15.125 6.4375 14.9375 6.1875 14.625 5.875C14.375 5.625 14.0625 5.4375 13.6875 5.25C13.375 5.125 12.9375 5.0625 12.4375 5C11.8125 5 11.625 5 10.1875 5ZM9.75 5.9375C9.875 5.9375 10.0625 5.9375 10.1875 5.9375C11.5625 5.9375 11.75 5.9375 12.3125 5.9375C12.8125 5.9375 13.0625 6.0625 13.25 6.125C13.5 6.25 13.6875 6.375 13.875 6.5C14.0625 6.625 14.1875 6.8125 14.25 7.125C14.3125 7.3125 14.4375 7.5625 14.4375 8.0625C14.5 8.625 14.5 8.8125 14.5 10.1875C14.5 11.5625 14.5 11.75 14.4375 12.3125C14.4375 12.8125 14.3125 13.125 14.25 13.3125C14.1875 13.5625 14.0625 13.6875 13.875 13.9375C13.6875 14.125 13.5 14.1875 13.25 14.3125C13.0625 14.375 12.8125 14.5 12.3125 14.5C11.75 14.5 11.5625 14.5625 10.1875 14.5625C8.8125 14.5625 8.625 14.5625 8.0625 14.5C7.5625 14.5 7.3125 14.375 7.125 14.3125C6.875 14.1875 6.6875 14.125 6.5 13.9375C6.3125 13.75 6.1875 13.5625 6.125 13.3125C6.0625 13.125 6 12.875 5.9375 12.3125C5.9375 11.75 5.9375 11.625 5.9375 10.1875C5.9375 8.8125 5.9375 8.625 5.9375 8.0625C6 7.5625 6.0625 7.3125 6.125 7.125C6.25 6.875 6.375 6.6875 6.5 6.5C6.625 6.3125 6.875 6.1875 7.125 6.125C7.3125 6.0625 7.5625 5.9375 8.0625 5.9375C8.5625 5.9375 8.75 5.9375 9.75 5.9375ZM13 6.8125C12.6875 6.8125 12.375 7.0625 12.375 7.4375C12.375 7.8125 12.625 8.0625 13 8.0625C13.375 8.0625 13.625 7.8125 13.625 7.4375C13.625 7.0625 13.3125 6.8125 13 6.8125ZM10.1875 7.5C8.75 7.5 7.5 8.6875 7.5 10.1875C7.5 11.6875 8.6875 12.875 10.1875 12.875C11.6875 12.875 12.875 11.6875 12.875 10.1875C12.875 8.6875 11.6875 7.5 10.1875 7.5ZM10.1875 8.4375C11.125 8.4375 11.9375 9.1875 11.9375 10.1875C11.9375 11.1875 11.1875 11.9375 10.1875 11.9375C9.25 11.9375 8.4375 11.1875 8.4375 10.1875C8.4375 9.1875 9.25 8.4375 10.1875 8.4375Z"/></svg>