<svg xmlns="http://www.w3.org/2000/svg" fill="#1C1C1C" width="22" height="22" viewBox="0 0 20 20" aria-labelledby="icon-svg-title- icon-svg-desc-" role="img" class="sc-rbbb40-0 cvuzKA"><path d="M0 10C0 4.5 4.5 0 10 0C15.5 0 20 4.5 20 10C20 15.5 15.5 20 10 20C4.5 20 0 15.5 0 10ZM15.1875 7.4375C15.0625 7 14.6875 6.625 14.25 6.5C13.4375 6.25 10.1875 6.25 10.1875 6.25C10.1875 6.25 6.9375 6.25 6.125 6.5C5.6875 6.625 5.3125 7 5.1875 7.4375C5 8.25 5 10 5 10C5 10 5 11.75 5.25 12.5625C5.375 13 5.75 13.375 6.1875 13.5C7 13.75 10.25 13.75 10.25 13.75C10.25 13.75 13.5 13.75 14.3125 13.5C14.75 13.375 15.125 13 15.25 12.5625C15.5 11.75 15.5 10 15.5 10C15.5 10 15.4375 8.25 15.1875 7.4375ZM9.25 11.75V8.5L11.875 10.125L9.25 11.75Z"/></svg>