<svg xmlns="http://www.w3.org/2000/svg" fill="#1C1C1C" width="22" height="22" viewBox="0 0 20 20" aria-labelledby="icon-svg-title- icon-svg-desc-" role="img" class="sc-rbbb40-0 cvuzKA"><path d="M0 10C0 4.5 4.5 0 10 0C15.5 0 20 4.5 20 10C20 15.5 15.5 20 10 20C4.5 20 0 15.5 0 10ZM10.0625 8.125V8.5L9.6875 8.4375C8.3125 8.25 7.125 7.6875 6.125 6.6875L5.625 6.1875L5.5 6.5625C5.25 7.375 5.375 8.25 5.9375 8.8125C6.25 9.125 6.1875 9.1875 5.6875 9C5.5 8.9375 5.375 8.875 5.3125 8.9375C5.25 9 5.4375 9.6875 5.5625 9.9375C5.75 10.3125 6.1875 10.6875 6.5625 10.875L6.9375 11.0625H6.5C6.0625 11.0625 6.0625 11.0625 6.125 11.25C6.3125 11.75 6.875 12.25 7.5625 12.5L8 12.6875L7.625 12.9375C7 13.3125 6.3125 13.5 5.625 13.5C5.3125 13.5 5 13.5625 5 13.5625C5 13.625 5.9375 14.0625 6.4375 14.25C8.0625 14.75 9.9375 14.5 11.375 13.6875C12.375 13.0625 13.375 11.875 13.875 10.75C14.125 10.125 14.375 9 14.375 8.5C14.375 8.1875 14.4375 8.125 14.8125 7.6875C15.0625 7.4375 15.3125 7.1875 15.3125 7.0625C15.375 6.9375 15.375 6.9375 15 7.0625C14.375 7.3125 14.25 7.25 14.625 6.875C14.875 6.625 15.125 6.1875 15.125 6.0625C15.125 6.0625 15 6.0625 14.875 6.125C14.75 6.1875 14.4375 6.3125 14.1875 6.375L13.8125 6.5L13.5 6.25C13.3125 6.125 13 5.9375 12.875 5.9375C12.5 5.8125 11.9375 5.8125 11.5625 6C10.5625 6.25 10 7.1875 10.0625 8.125Z"/></svg>