<svg xmlns="http://www.w3.org/2000/svg" fill="#1C1C1C" width="22" height="22" viewBox="0 0 20 20" aria-labelledby="icon-svg-title- icon-svg-desc-" role="img" class="sc-rbbb40-0 cvuzKA"><path d="M0 10C0 4.5 4.5 0 10 0C15.5 0 20 4.5 20 10C20 15.5 15.5 20 10 20C4.5 20 0 15.5 0 10ZM7.0625 8.375H4.75V15.4375H7.0625V8.375ZM7.25 6.1875C7.25 5.5 6.75 5 5.9375 5C5.125 5 4.5625 5.5 4.5625 6.1875C4.5625 6.875 5.0625 7.4375 5.875 7.4375C6.6875 7.4375 7.25 6.875 7.25 6.1875ZM15.5 11.375C15.5 9.1875 14.3125 8.1875 12.8125 8.1875C11.5625 8.1875 11 8.875 10.6875 9.375V8.375H8.375C8.375 9.0625 8.375 15.4375 8.375 15.4375H10.6875V11.5C10.6875 11.3125 10.6875 11.0625 10.75 10.9375C10.9375 10.5 11.3125 10.0625 11.9375 10.0625C12.75 10.0625 13.125 10.6875 13.125 11.6875V15.4375H15.4375C15.5 15.4375 15.5 11.375 15.5 11.375Z"/></svg>